<?xml version="1.0" standalone="no"?>
<!DOCTYPE svg PUBLIC "-//W3C//DTD SVG 20010904//EN"
 "http://www.w3.org/TR/2001/REC-SVG-20010904/DTD/svg10.dtd">
<svg version="1.0" xmlns="http://www.w3.org/2000/svg"
 width="1000.000000pt" height="1000.000000pt" viewBox="0 0 1000.000000 1000.000000"
 preserveAspectRatio="xMidYMid meet">
<metadata>
Created by potrace 1.14, written by Peter Selinger 2001-2017
</metadata>
<g transform="translate(0.000000,1000.000000) scale(0.100000,-0.100000)"
fill="#000000" stroke="none">
<path d="M4757 7494 c-2 -3 -104 -14 -137 -16 -93 -4 -506 -104 -537 -130 -18
-14 -16 -63 2 -78 17 -14 18 -14 187 33 70 20 147 39 170 42 23 4 45 8 48 10
25 16 291 39 445 39 194 1 316 -12 495 -51 63 -13 122 -26 130 -28 9 -2 55
-15 103 -30 84 -27 88 -27 107 -10 23 21 26 57 7 74 -30 24 -307 98 -437 116
-25 3 -56 8 -70 10 -95 14 -167 18 -328 20 -100 1 -183 0 -185 -1z"/>
<path d="M2112 7262 c-17 -3 -32 -24 -66 -95 -24 -51 -115 -236 -201 -412 -87
-176 -192 -392 -235 -480 -43 -88 -130 -268 -195 -400 -64 -132 -159 -325
-210 -430 -51 -104 -148 -302 -215 -440 -67 -137 -160 -326 -205 -420 -45 -93
-150 -307 -232 -475 -82 -168 -194 -397 -249 -510 -54 -112 -145 -297 -200
-410 -56 -113 -100 -208 -97 -212 2 -4 204 -7 449 -7 245 1 448 -2 451 -5 3
-3 -13 -45 -37 -93 -24 -49 -72 -146 -107 -217 -35 -71 -61 -132 -57 -135 7
-8 3004 -8 3004 0 0 3 -25 27 -56 53 l-56 49 -1364 0 c-750 0 -1364 1 -1364 2
0 1 22 47 48 101 27 55 64 132 83 171 l34 73 50 0 c28 0 626 1 1330 1 982 0
1276 3 1262 12 -161 103 -211 135 -257 170 -30 23 -57 44 -60 48 -3 3 -15 12
-28 21 -12 8 -42 33 -65 54 -24 22 -53 48 -66 59 -23 20 -38 20 -991 20 -533
0 -971 3 -974 6 -4 3 71 163 165 355 94 192 204 417 244 499 68 140 315 646
416 850 l44 90 347 1 348 1 57 -65 c68 -76 74 -83 133 -151 25 -29 59 -67 75
-84 17 -18 59 -66 95 -107 58 -66 119 -135 199 -225 31 -34 117 -131 169 -190
20 -22 54 -60 76 -85 23 -25 68 -76 101 -114 33 -38 71 -81 85 -96 14 -15 54
-60 90 -101 129 -146 164 -185 230 -259 37 -41 210 -236 384 -432 175 -197
321 -358 325 -358 14 0 194 192 376 400 27 30 51 57 54 60 3 3 21 23 40 45 18
22 52 60 75 85 23 25 129 144 236 265 107 121 209 236 226 255 17 19 145 163
284 320 139 157 283 319 320 360 37 41 82 93 101 115 19 22 37 42 40 45 3 3
28 30 55 61 61 69 186 208 199 223 6 6 44 49 85 96 41 47 77 87 80 90 3 3 34
39 70 80 36 41 72 81 80 90 8 9 29 32 45 51 84 93 204 229 233 263 l34 39 580
-1 c319 -1 582 -3 584 -5 2 -2 -37 -86 -87 -188 -50 -101 -119 -242 -154 -314
-34 -71 -127 -260 -205 -420 -78 -159 -184 -375 -235 -480 -51 -104 -142 -291
-203 -415 -60 -124 -156 -319 -212 -435 -56 -115 -106 -212 -110 -215 -5 -3
-196 -5 -425 -5 l-417 0 -56 -50 c-32 -28 -79 -68 -107 -90 -27 -22 -52 -42
-55 -45 -10 -12 -137 -98 -212 -144 -43 -27 -78 -50 -78 -52 0 -2 359 -3 798
-3 l797 1 47 96 c26 54 108 223 184 377 75 154 180 370 234 480 154 315 299
612 410 840 56 116 151 309 210 430 656 1344 595 1225 627 1226 65 2 456 -1
459 -3 1 -2 -45 -100 -103 -218 -157 -320 -315 -644 -408 -835 -45 -93 -135
-278 -200 -410 -65 -132 -159 -325 -210 -430 -51 -104 -148 -302 -215 -440
-67 -137 -159 -326 -205 -420 -46 -93 -153 -314 -239 -490 -87 -176 -182 -372
-213 -436 l-56 -117 -438 1 -437 0 -61 -53 c-34 -29 -61 -54 -61 -54 0 -1 239
-1 532 -1 l531 0 110 225 c60 124 154 315 207 425 54 110 150 308 215 440 211
431 326 667 425 870 54 110 153 313 220 450 67 138 157 322 200 410 43 88 134
275 202 415 243 495 378 773 378 776 0 1 -120 3 -267 3 -148 0 -285 0 -305 1
l-38 0 32 65 c29 58 36 65 63 66 16 0 133 1 258 1 187 0 230 3 242 15 19 18
19 44 1 68 -12 17 -31 18 -245 18 -127 0 -231 3 -231 6 0 3 54 114 119 246 65
132 117 242 115 244 -5 6 -3684 7 -3684 1 0 -3 42 -30 93 -61 110 -68 269
-186 352 -263 l60 -56 1283 0 c705 0 1282 -3 1282 -7 -1 -5 -13 -31 -28 -59
l-27 -51 -1155 0 c-636 0 -1167 -3 -1182 -6 -34 -9 -44 -41 -24 -71 l15 -24
1141 1 c627 0 1143 -2 1146 -5 3 -3 -7 -33 -22 -67 -21 -46 -33 -61 -48 -61
-12 -1 -459 -1 -995 -1 -536 0 -970 -4 -965 -8 5 -5 32 -29 60 -53 l52 -45
888 -1 c489 0 897 -1 906 -1 15 -1 10 -16 -30 -98 -26 -54 -48 -100 -49 -102
-2 -2 -970 -4 -2153 -4 l-2150 0 -62 84 c-136 185 -352 381 -555 503 -131 78
-322 157 -522 215 -22 6 -19 11 50 63 78 58 182 126 237 155 17 9 32 19 32 22
0 6 -1537 9 -1578 3z m4818 -1430 c0 -6 -38 -52 -107 -130 -148 -166 -166
-186 -188 -211 -13 -14 -33 -37 -45 -51 -12 -14 -38 -43 -58 -65 -20 -22 -55
-60 -76 -85 -22 -25 -70 -79 -106 -120 -37 -41 -109 -122 -160 -180 -51 -58
-109 -123 -129 -145 -20 -22 -142 -159 -271 -305 -129 -146 -237 -267 -240
-270 -3 -3 -35 -39 -70 -80 -36 -41 -68 -77 -71 -80 -3 -3 -27 -30 -54 -60
-59 -68 -181 -205 -215 -241 -14 -15 -45 -51 -70 -80 -66 -76 -68 -79 -150
-169 -41 -45 -76 -86 -78 -91 -8 -20 -26 -3 -143 129 -67 75 -138 155 -158
177 -20 22 -196 220 -391 440 -195 220 -366 414 -381 430 -37 41 -121 136
-201 225 -36 41 -76 86 -88 100 -12 14 -49 56 -83 93 -34 38 -65 75 -69 81 -6
10 146 13 725 14 403 0 742 1 755 1 23 1 24 2 18 89 -14 193 -45 364 -91 499
-14 39 -25 74 -25 77 0 3 37 6 83 8 116 4 2137 4 2137 0z m-4950 -683 c0 -4
-34 -76 -76 -161 -42 -84 -114 -229 -159 -323 -269 -554 -593 -1217 -619
-1265 l-23 -45 -242 0 c-132 0 -241 3 -241 7 0 4 54 119 121 255 67 136 156
320 199 408 43 88 151 309 240 490 89 182 195 400 237 486 l75 155 244 1 c134
0 244 -3 244 -8z"/>
<path d="M4807 7264 c-1 -1 -38 -5 -82 -9 -214 -17 -399 -55 -595 -121 -52
-18 -55 -21 -58 -56 -3 -33 0 -38 23 -44 29 -7 38 -5 155 31 85 26 284 68 371
79 146 19 401 24 518 11 84 -9 204 -25 232 -31 13 -2 47 -9 75 -14 27 -6 97
-24 155 -41 152 -46 166 -47 180 -15 21 46 1 69 -82 94 -79 24 -179 49 -219
57 -14 3 -36 7 -50 10 -14 3 -54 10 -90 16 -36 5 -76 12 -89 14 -67 12 -434
27 -444 19z"/>
<path d="M4817 7044 c-1 -1 -42 -4 -91 -8 -78 -5 -165 -17 -232 -30 -12 -2
-39 -7 -59 -10 -129 -21 -352 -91 -364 -115 -13 -24 9 -65 37 -69 20 -3 47 4
187 48 43 13 218 49 295 60 173 24 394 32 525 18 39 -4 93 -10 120 -13 49 -5
86 -11 135 -20 14 -3 39 -8 55 -11 46 -8 142 -33 234 -60 99 -30 131 -24 131
25 0 16 -6 33 -13 39 -19 16 -209 70 -341 96 -185 37 -292 48 -484 50 -73 1
-134 1 -135 0z"/>
<path d="M2389 5077 c-23 -12 -24 -17 -24 -117 -1 -121 18 -304 46 -440 62
-309 197 -634 372 -895 111 -167 141 -194 184 -167 30 19 20 56 -38 134 -194
262 -364 645 -419 946 -5 31 -12 66 -14 77 -2 11 -7 45 -11 75 -4 30 -9 63
-11 73 -1 10 -6 79 -10 155 -3 75 -8 140 -11 144 -11 20 -40 26 -64 15z"/>
<path d="M7213 5079 c-13 -5 -23 -12 -24 -16 -1 -4 -2 -37 -4 -73 -4 -100 -16
-253 -20 -260 -2 -3 -6 -32 -10 -65 -7 -65 -54 -272 -84 -370 -72 -233 -209
-503 -360 -710 -28 -38 -51 -79 -51 -90 0 -28 19 -45 50 -45 20 0 37 15 77 68
144 190 285 462 367 712 30 91 57 179 60 195 3 17 10 53 16 80 12 56 16 82 25
140 3 23 7 50 9 62 6 28 17 171 21 264 3 96 -18 128 -72 108z"/>
<path d="M3975 2720 c-32 -35 -11 -69 55 -92 145 -50 323 -89 520 -113 99 -13
499 -14 560 -2 14 3 48 8 75 12 119 16 302 57 423 97 45 14 66 26 71 42 10 26
-6 64 -28 68 -9 2 -65 -11 -126 -29 -253 -75 -459 -102 -740 -98 -110 2 -209
5 -220 8 -11 3 -45 8 -75 12 -119 14 -306 57 -414 95 -73 25 -79 25 -101 0z"/>
</g>
</svg>
