<?xml version="1.0" standalone="no"?>
<!DOCTYPE svg PUBLIC "-//W3C//DTD SVG 20010904//EN"
 "http://www.w3.org/TR/2001/REC-SVG-20010904/DTD/svg10.dtd">
<svg version="1.0" xmlns="http://www.w3.org/2000/svg"
 width="500.000000pt" height="250.000000pt" viewBox="0 0 500.000000 250.000000"
 preserveAspectRatio="xMidYMid meet">

<g transform="translate(0.000000,250.000000) scale(0.100000,-0.100000)"
fill="#D02C2C" stroke="none">
<path d="M2305 2489 c-92 -12 -257 -57 -266 -71 -8 -12 -1 -38 10 -38 3 0 38
9 76 20 96 28 244 50 339 50 96 0 259 -23 345 -50 69 -20 81 -19 81 9 0 19
-86 49 -205 71 -85 15 -297 21 -380 9z"/>
<path d="M524 1312 l-520 -1067 223 -3 c169 -2 223 -5 223 -15 0 -6 -22 -58
-50 -115 l-49 -102 751 0 751 0 -23 25 -23 25 -684 0 c-458 0 -683 3 -683 10
0 6 18 46 40 90 l40 80 662 0 661 0 -64 41 c-35 23 -94 66 -130 95 l-66 54
-486 0 -485 0 219 447 219 448 174 3 174 2 477 -537 c263 -296 491 -551 506
-568 l29 -29 37 36 c21 21 317 352 658 737 l620 700 293 0 c160 1 292 -1 292
-3 0 -2 -135 -280 -300 -617 l-299 -614 -212 -3 -211 -2 -45 -40 c-25 -21 -81
-64 -126 -95 l-81 -55 397 2 397 3 418 855 418 855 122 3 c67 1 122 -1 122 -5
0 -4 -207 -431 -460 -948 l-460 -940 -223 -3 -224 -2 -23 -25 -24 -25 264 2
264 3 486 995 486 995 -148 3 c-82 1 -148 7 -148 12 0 5 5 20 11 34 12 25 13
25 148 28 128 3 136 4 136 23 0 19 -8 20 -117 23 -69 1 -118 7 -118 12 0 6 25
60 56 121 30 61 53 113 51 115 -2 2 -415 3 -918 2 l-914 -3 48 -28 c27 -16 85
-58 128 -93 l80 -64 640 0 640 0 -16 -30 -15 -30 -593 -2 c-584 -3 -592 -3
-592 -23 0 -20 8 -20 578 -23 317 -1 577 -5 577 -8 0 -3 -7 -18 -15 -34 l-16
-30 -492 0 -492 -1 28 -24 28 -25 450 0 c247 0 449 -2 449 -5 0 -2 -10 -25
-22 -50 l-22 -45 -1077 0 -1077 0 -18 28 c-31 48 -157 173 -219 217 -74 53
-178 105 -268 134 -39 13 -64 27 -61 33 4 5 40 32 81 59 l76 49 -399 0 -399 0
-521 -1068z m2924 331 c-14 -16 -242 -273 -508 -573 -265 -300 -493 -556 -505
-569 l-23 -23 -376 423 -377 424 376 3 375 2 0 49 c0 57 -24 192 -45 251 l-14
40 561 0 562 0 -26 -27z m-2460 -322 c-2 -5 -100 -208 -218 -450 l-215 -441
-123 0 c-68 0 -122 4 -120 9 2 5 100 207 218 450 l215 441 123 0 c70 0 122 -4
120 -9z"/>
<path d="M2255 2364 c-98 -17 -212 -51 -220 -65 -4 -5 -2 -16 5 -23 9 -12 21
-11 73 5 193 58 461 65 652 15 119 -31 125 -31 125 -6 0 15 -14 24 -67 40
-159 49 -401 64 -568 34z"/>
<path d="M2257 2255 c-95 -16 -214 -52 -222 -66 -4 -5 -2 -16 4 -23 9 -11 25
-10 89 9 191 55 448 60 637 11 122 -32 127 -32 123 -3 -3 19 -17 26 -113 51
-95 24 -133 29 -275 32 -110 2 -191 -1 -243 -11z"/>
<path d="M1184 1275 c-9 -22 4 -174 22 -260 44 -212 203 -535 264 -535 30 0
24 23 -24 92 -123 177 -196 388 -214 618 -6 79 -10 95 -25 98 -9 2 -20 -4 -23
-13z"/>
<path d="M3597 1284 c-4 -4 -7 -35 -7 -69 0 -197 -82 -446 -209 -635 -55 -82
-61 -100 -31 -100 44 0 176 225 229 394 39 123 54 214 55 321 1 73 -2 90 -14
93 -9 1 -19 0 -23 -4z"/>
<path d="M1984 107 c-9 -25 1 -33 78 -55 97 -29 254 -52 353 -52 155 0 409 52
422 86 12 31 -14 31 -127 2 -227 -58 -432 -50 -697 28 -16 4 -25 1 -29 -9z"/>
</g>
</svg>
